<svg width="28" height="28" viewBox="0 0 28 28" fill="none" xmlns="http://www.w3.org/2000/svg">
<path fill-rule="evenodd" clip-rule="evenodd" d="M9.30631 0H19.3653C23.9941 0 27.7478 3.87227 27.7478 8.64732V19.0241C27.7478 23.7992 23.9941 27.6714 19.3653 27.6714H9.30631C4.6775 27.6714 0.923828 23.7992 0.923828 19.0241V8.64732C0.923828 3.87227 4.6775 0 9.30631 0ZM19.366 25.0767C22.6016 25.0767 25.2337 22.3614 25.2337 19.0236V8.64688C25.2337 5.30904 22.6016 2.5938 19.366 2.5938H9.30702C6.07138 2.5938 3.43928 5.30904 3.43928 8.64688V19.0236C3.43928 22.3614 6.07138 25.0767 9.30702 25.0767H19.366Z" fill="#FFFCF5"/>
<path fill-rule="evenodd" clip-rule="evenodd" d="M7.62891 13.836C7.62891 10.0155 10.6315 6.91797 14.3349 6.91797C18.0382 6.91797 21.0408 10.0155 21.0408 13.836C21.0408 17.6564 18.0382 20.7539 14.3349 20.7539C10.6315 20.7539 7.62891 17.6564 7.62891 13.836ZM10.1445 13.8358C10.1445 16.2189 12.0256 18.1593 14.3358 18.1593C16.646 18.1593 18.527 16.2189 18.527 13.8358C18.527 11.4509 16.646 9.51221 14.3358 9.51221C12.0256 9.51221 10.1445 11.4509 10.1445 13.8358Z" fill="#FFFCF5"/>
<ellipse cx="21.545" cy="6.39869" rx="0.893586" ry="0.92164" fill="#FFFCF5"/>
</svg>
