<svg width="27" height="23" viewBox="0 0 27 23" fill="none" xmlns="http://www.w3.org/2000/svg">
<path d="M26.9235 3.17722C25.926 3.6286 24.8631 3.92779 23.755 4.07306C24.895 3.37091 25.7651 2.26754 26.1741 0.937606C25.1112 1.59133 23.9377 2.05309 22.687 2.31077C21.6778 1.20221 20.2394 0.515625 18.6702 0.515625C15.6256 0.515625 13.1746 3.06481 13.1746 6.18989C13.1746 6.63954 13.2115 7.0719 13.302 7.4835C8.73021 7.25349 4.68483 4.99312 1.96723 1.54982C1.49278 2.39897 1.21448 3.37091 1.21448 4.41722C1.21448 6.38185 2.19523 8.12339 3.65713 9.13165C2.77362 9.11435 1.90687 8.84975 1.17257 8.43296C1.17257 8.45025 1.17257 8.47274 1.17257 8.49522C1.17257 11.2519 3.07874 13.5417 5.5784 14.0692C5.13077 14.1954 4.64291 14.256 4.13661 14.256C3.78455 14.256 3.42913 14.2352 3.09551 14.1591C3.80802 16.4056 5.82987 18.0572 8.23397 18.1109C6.363 19.6206 3.9874 20.5303 1.41566 20.5303C0.964681 20.5303 0.532145 20.5096 0.0996094 20.4525C2.53556 22.073 5.42248 22.9982 8.53574 22.9982C18.6551 22.9982 24.1875 14.3511 24.1875 6.85572C24.1875 6.60495 24.1791 6.36283 24.1674 6.12244C25.2588 5.32344 26.1758 4.32556 26.9235 3.17722Z" fill="#FFFCF5"/>
</svg>
